<?xml version="1.0" encoding="iso-8859-1"?>
<!-- Generator: Adobe Illustrator 19.0.0, SVG Export Plug-In . SVG Version: 6.00 Build 0)  -->
<svg version="1.1" id="Layer_1" xmlns="http://www.w3.org/2000/svg" xmlns:xlink="http://www.w3.org/1999/xlink" x="0px" y="0px"
	 viewBox="0 0 335.059 335.059" style="enable-background:new 0 0 335.059 335.059;" xml:space="preserve">
<g>
	<path style="fill:#FFD155;" d="M307.559,44.075H27.5c-11.046,0-20,8.954-20,20v90h320.059v-90
		C327.559,53.029,318.604,44.075,307.559,44.075z"/>
	<path style="fill:#F59D00;" d="M27.5,109.075v-35c0-5.523,4.477-10,10-10h260.059c5.523,0,10,4.477,10,10v35
		c0,5.523-4.477,10-10,10H37.5C31.977,119.075,27.5,114.598,27.5,109.075z"/>
	<rect x="116.949" y="154.075" style="fill:#FFD155;" width="101.161" height="40"/>
	<g>
		<path style="fill:#FFD155;" d="M7.5,154.075c0,22.091,17.909,40,40,40h69.449v-40H7.5z"/>
		<path style="fill:#FFD155;" d="M218.11,154.075v40h69.448c22.091,0,40-17.909,40-40H218.11z"/>
	</g>
	<g>
		<path style="fill:#E87E04;" d="M307.559,36.575H27.5c-15.163,0-27.5,12.336-27.5,27.5v90c0,26.191,21.309,47.5,47.5,47.5
			c15.348,0,232.086,0,240.059,0c26.191,0,47.5-21.309,47.5-47.5v-90C335.059,48.911,322.722,36.575,307.559,36.575z M15,64.075
			c0-6.893,5.607-12.5,12.5-12.5h280.059c6.893,0,12.5,5.607,12.5,12.5v82.5c-10.539,0-290.939,0-305.059,0V64.075z M15.873,161.575
			h93.575v25H47.5C32.16,186.575,19.268,175.892,15.873,161.575z M124.448,161.575h86.162v25h-86.162V161.575z M287.559,186.575
			H225.61v-25h93.575C315.791,175.892,302.898,186.575,287.559,186.575z"/>
		<path style="fill:#E87E04;" d="M315.059,109.075v-35c0-9.649-7.851-17.5-17.5-17.5H37.5c-9.649,0-17.5,7.851-17.5,17.5v35
			c0,9.649,7.851,17.5,17.5,17.5h260.059C307.208,126.575,315.059,118.724,315.059,109.075z M35,109.075v-35
			c0-1.378,1.121-2.5,2.5-2.5h260.059c1.379,0,2.5,1.122,2.5,2.5v35c0,1.378-1.121,2.5-2.5,2.5H37.5
			C36.121,111.575,35,110.453,35,109.075z"/>
		<path style="fill:#E87E04;" d="M122.579,271.903c-0.025-1.729,0.623-3.364,1.827-4.605c3.995-4.117,6.147-9.543,6.06-15.279
			c-0.165-10.902-6.891-15.447-15.955-24.237c-2.974-2.884-7.722-2.811-10.605,0.163c-2.884,2.974-2.812,7.722,0.162,10.606
			c9.925,9.624,11.347,10.226,11.4,13.697c0.026,1.729-0.622,3.364-1.826,4.604c-3.996,4.117-6.148,9.543-6.062,15.279
			c0.165,10.924,6.928,15.483,15.956,24.237c2.973,2.884,7.722,2.811,10.605-0.163c2.884-2.974,2.812-7.722-0.162-10.605
			C124.052,275.973,122.632,275.37,122.579,271.903z"/>
		<path style="fill:#E87E04;" d="M171.084,271.903c-0.025-1.729,0.623-3.364,1.827-4.605c3.996-4.117,6.148-9.543,6.062-15.279
			c-0.166-10.924-6.928-15.482-15.956-24.237c-2.975-2.884-7.723-2.811-10.605,0.163c-2.884,2.974-2.812,7.722,0.162,10.606
			c9.928,9.627,11.349,10.23,11.401,13.697c0.025,1.729-0.623,3.364-1.827,4.604c-3.996,4.117-6.149,9.543-6.062,15.279
			c0.087,5.736,2.403,11.095,6.521,15.088l9.435,9.149c2.973,2.884,7.722,2.811,10.605-0.163c2.884-2.974,2.811-7.722-0.162-10.605
			C172.557,275.973,171.137,275.37,171.084,271.903z"/>
		<path style="fill:#E87E04;" d="M219.59,271.903c-0.026-1.729,0.622-3.364,1.826-4.605c3.996-4.117,6.148-9.543,6.061-15.279
			c-0.165-10.924-6.928-15.482-15.956-24.237c-2.974-2.884-7.722-2.811-10.605,0.163c-2.884,2.974-2.811,7.722,0.162,10.606
			c9.928,9.627,11.349,10.23,11.401,13.697c0.025,1.729-0.623,3.364-1.827,4.605c-3.995,4.117-6.147,9.543-6.061,15.279
			c0.087,5.736,2.402,11.095,6.521,15.088l9.435,9.149c2.973,2.884,7.721,2.811,10.605-0.163c2.884-2.974,2.812-7.722-0.162-10.605
			C221.065,275.976,219.643,275.373,219.59,271.903z"/>
	</g>
</g>
<g>
</g>
<g>
</g>
<g>
</g>
<g>
</g>
<g>
</g>
<g>
</g>
<g>
</g>
<g>
</g>
<g>
</g>
<g>
</g>
<g>
</g>
<g>
</g>
<g>
</g>
<g>
</g>
<g>
</g>
</svg>
